<svg viewBox="0 0 30 30" xml:space="preserve" xmlns="http://www.w3.org/2000/svg" enable-background="new 0 0 30 30"><path d="M7 22V4h18v18a4 4 0 0 1-4 4" fill="none" stroke="gray" stroke-width="2" stroke-linecap="round" stroke-linejoin="round" stroke-miterlimit="10" class="stroke-000000"></path><path d="M17 22h0H4h0a4 4 0 0 0 4 4h13a4 4 0 0 1-4-4z" fill="none" stroke="gray" stroke-width="2" stroke-linecap="round" stroke-linejoin="round" stroke-miterlimit="10" class="stroke-000000"></path><path d="M15 13h6M11 13h2M15 17h6M11 17h2M15 9h6M11 9h2" fill="none" stroke="gray" stroke-width="2" stroke-linejoin="round" stroke-miterlimit="10" class="stroke-000000"></path><path d="M17 22H4a4 4 0 0 0 4 4h13a4 4 0 0 1-4-4z" fill="gray" class="fill-000000"></path></svg>